<?xml version="1.0" encoding="UTF-8"?>
<svg version="1.1" xmlns="http://www.w3.org/2000/svg" width="375" height="347">
<path d="M0 0 C0.721875 0.00257813 1.44375 0.00515625 2.1875 0.0078125 C2.909375 0.00523437 3.63125 0.00265625 4.375 0 C6.1875 0.1328125 6.1875 0.1328125 7.1875 1.1328125 C7.28545311 2.50891132 7.31548088 3.88995132 7.31689453 5.26953125 C7.32004669 6.14714111 7.32319885 7.02475098 7.32644653 7.92895508 C7.3244223 8.88310303 7.32239807 9.83725098 7.3203125 10.8203125 C7.32126923 11.79315186 7.32222595 12.76599121 7.32321167 13.76831055 C7.32389358 15.8295905 7.32203853 17.89087258 7.31787109 19.95214844 C7.312523 23.11918938 7.31781572 26.2860885 7.32421875 29.453125 C7.32355797 31.45052115 7.32227681 33.44791721 7.3203125 35.4453125 C7.32233673 36.39946045 7.32436096 37.3536084 7.32644653 38.33666992 C7.32171829 39.65308472 7.32171829 39.65308472 7.31689453 40.99609375 C7.31609894 41.77251221 7.31530334 42.54893066 7.31448364 43.34887695 C7.1875 45.1328125 7.1875 45.1328125 6.1875 46.1328125 C-1.10661765 46.36810662 -1.10661765 46.36810662 -4.8125 45.1328125 C-5.8025 45.6278125 -5.8025 45.6278125 -6.8125 46.1328125 C-11.42450214 46.69547676 -14.93984709 46.53681848 -19.1875 44.5703125 C-23.26955729 40.77983073 -24.57145836 37.62692395 -25.09375 32.22265625 C-25.30696269 25.05337962 -24.611591 20.36926146 -19.8125 14.8203125 C-16.07935328 11.67046995 -12.51822217 11.88941308 -7.8125 12.1328125 C-6.12956786 12.75728159 -4.4587361 13.41718066 -2.8125 14.1328125 C-2.82410156 13.20597656 -2.83570313 12.27914062 -2.84765625 11.32421875 C-2.85667969 10.12667969 -2.86570313 8.92914063 -2.875 7.6953125 C-2.88660156 6.50035156 -2.89820313 5.30539063 -2.91015625 4.07421875 C-2.78165723 0.20382833 -2.78165723 0.20382833 0 0 Z M-12.8125 21.1328125 C-15.03514871 24.46678556 -15.10925463 25.72796141 -15.125 29.6328125 C-15.14175781 30.591875 -15.15851563 31.5509375 -15.17578125 32.5390625 C-15.01856477 35.15259113 -15.01856477 35.15259113 -13.48046875 36.94921875 C-10.85919912 38.80927659 -8.92433833 38.58662226 -5.8125 38.1328125 C-2.98022095 35.22075094 -2.40120924 33.08044095 -2.4375 29.0703125 C-2.42976563 28.21308594 -2.42203125 27.35585937 -2.4140625 26.47265625 C-2.89152657 23.66872507 -3.51527917 22.77519337 -5.8125 21.1328125 C-9.35463985 20.63273456 -9.35463985 20.63273456 -12.8125 21.1328125 Z " fill="#F8F9FA" transform="translate(133.8125,149.8671875)"/>
<path d="M0 0 C-0.75 5.75 -0.75 5.75 -3 8 C-5.26274788 7.64644564 -6.95088852 7.02455574 -9 6 C-10.54023996 5.93049459 -12.08334988 5.91547643 -13.625 5.9375 C-14.44226563 5.94652344 -15.25953125 5.95554688 -16.1015625 5.96484375 C-16.72804688 5.97644531 -17.35453125 5.98804688 -18 6 C-18.66 7.65 -19.32 9.3 -20 11 C-18.90300781 11.23074219 -17.80601562 11.46148437 -16.67578125 11.69921875 C-15.22113727 12.02768675 -13.76672174 12.35716765 -12.3125 12.6875 C-11.59126953 12.83638672 -10.87003906 12.98527344 -10.12695312 13.13867188 C-5.09851385 14.30967828 -2.38221515 15.89348639 1 20 C2.72718316 23.45436632 2.35474942 27.21600619 2 31 C0.15401065 35.61497339 -2.51908 37.91405449 -7 40 C-15.35778136 40.96808278 -22.01888959 40.42451341 -29 35.625 C-30 34 -30 34 -29.8125 31.5 C-29 29 -29 29 -27 26 C-24.54213734 26.43890405 -23.16962228 26.85460947 -21.25 28.5 C-17.88870689 30.74086208 -15.01951148 30.74067668 -11 31 C-10.01 30.505 -10.01 30.505 -9 30 C-9 28.35 -9 26.7 -9 25 C-9.56847656 24.81824219 -10.13695312 24.63648438 -10.72265625 24.44921875 C-13.15719979 23.65667119 -15.58010231 22.83617484 -18 22 C-18.66515625 21.77183594 -19.3303125 21.54367188 -20.015625 21.30859375 C-24.2915073 19.6818994 -26.70637661 17.96973279 -29 14 C-30.38307735 9.73401466 -30.49552577 6.25596417 -28.5 2.1875 C-21.93303759 -7.56276961 -8.65995966 -5.22865489 0 0 Z " fill="#F8F9FA" transform="translate(322,156)"/>
<path d="M0 0 C3.16234597 1.8960676 5.12677761 3.74615032 6.375 7.3125 C5.9375 9.5 5.9375 9.5 4.375 11.3125 C1.25 12.5625 1.25 12.5625 -1.625 13.3125 C-2.285 12.4875 -2.945 11.6625 -3.625 10.8125 C-6.84884874 8.12479679 -6.84884874 8.12479679 -10.6875 7.75 C-14.59420377 7.98853338 -14.59420377 7.98853338 -17.0625 10.125 C-20.55442139 15.01368994 -19.97815902 20.54697371 -19.625 26.3125 C-18.76784151 29.82079714 -18.76784151 29.82079714 -17.625 32.3125 C-16.04370971 32.53581199 -14.45978911 32.74054644 -12.875 32.9375 C-11.99328125 33.05351562 -11.1115625 33.16953125 -10.203125 33.2890625 C-7.33991215 33.31509171 -5.99010539 32.88923693 -3.625 31.3125 C-1.87177063 28.78061352 -1.87177063 28.78061352 -0.625 26.3125 C5.125 27.9375 5.125 27.9375 7.375 31.3125 C4.42147888 36.12564553 1.49135371 39.75432314 -3.625 42.3125 C-11.00313129 42.99028109 -17.93481525 43.49331873 -24.07421875 38.87890625 C-29.18469719 33.71693684 -30.79039401 27.79504193 -30.9375 20.6875 C-30.87220504 13.65740962 -30.01183182 7.98230472 -25.12890625 2.69140625 C-18.48342361 -3.15860715 -7.96507034 -3.67846824 0 0 Z " fill="#F7F8F9" transform="translate(41.625,153.6875)"/>
<path d="M0 0 C2.85745826 1.6663617 5.06010218 3.17821798 6.5 6.25 C6.4375 8.3125 6.4375 8.3125 5.5 10.25 C3.4375 12 3.4375 12 1.5 13.25 C-0.68782147 12.26925245 -2.26795541 11.51681784 -3.85546875 9.69140625 C-6.00333381 7.80883569 -7.18486228 7.90616208 -10 8 C-10.7734375 8.01546875 -11.546875 8.0309375 -12.34375 8.046875 C-14.6822807 8.18528295 -14.6822807 8.18528295 -17.5 9.25 C-19.74783483 19.89457934 -19.74783483 19.89457934 -17.5 30.25 C-15.19862008 32.48369228 -13.72057125 33.15293668 -10.53515625 33.40625 C-8.30232495 33.30645866 -6.5863728 33.06015729 -4.5 32.25 C-1.95201834 29.34846449 -1.95201834 29.34846449 -0.5 26.25 C2.74208567 26.60049575 4.11527704 26.81221181 6.3125 29.3125 C6.9003125 30.2715625 6.9003125 30.2715625 7.5 31.25 C4.91523875 36.4195225 3.00504348 39.87713643 -2.5 42.25 C-9.87318645 43.02059431 -16.02308903 43.16542076 -22.5 39.25 C-28.20376227 34.43592715 -29.91747257 29.27429906 -30.75 22.09375 C-31.12521638 15.43365917 -29.47272117 8.73582099 -25.07421875 3.578125 C-18.07648215 -2.56975728 -8.45536442 -3.96980141 0 0 Z " fill="#F7F9FA" transform="translate(358.5,153.75)"/>
<path d="M0 0 C6.4946187 -0.36761993 6.4946187 -0.36761993 8.60498047 1.16748047 C10.38435708 3.50489749 11.11669342 5.70879051 12.0078125 8.5078125 C12.52794922 10.11076172 12.52794922 10.11076172 13.05859375 11.74609375 C13.41050781 12.86113281 13.76242187 13.97617188 14.125 15.125 C14.83346494 17.33673104 15.54427377 19.54771313 16.2578125 21.7578125 C16.5686377 22.7389502 16.87946289 23.72008789 17.19970703 24.73095703 C17.79484447 26.93872728 17.79484447 26.93872728 19 28 C19.2673999 27.18732666 19.5347998 26.37465332 19.81030273 25.53735352 C20.80123307 22.53053361 21.79483725 19.52461479 22.7902832 16.51928711 C23.22105089 15.21690951 23.65074225 13.91417542 24.0793457 12.61108398 C24.69461363 10.74109627 25.31404059 8.87247858 25.93359375 7.00390625 C26.30540771 5.87799072 26.67722168 4.7520752 27.06030273 3.59204102 C28 1 28 1 29 0 C31.67058851 -0.14115161 34.32432238 -0.04247107 37 0 C37.99372829 3.08497922 38.00278598 4.85629176 36.9519043 7.91064453 C36.69801437 8.6646756 36.44412445 9.41870667 36.18254089 10.19558716 C35.89929459 10.99987152 35.61604828 11.80415588 35.32421875 12.6328125 C35.03899857 13.46585907 34.75377838 14.29890564 34.45991516 15.15719604 C33.85535066 16.91562007 33.24561696 18.67227415 32.63110352 20.42724609 C31.68999042 23.11787992 30.76662575 25.81411631 29.84570312 28.51171875 C29.25624805 30.2191093 28.66578722 31.92615303 28.07421875 33.6328125 C27.79704514 34.44114532 27.51987152 35.24947815 27.23429871 36.08230591 C25.2317217 41.7682783 25.2317217 41.7682783 23 44 C20.6171875 44.1953125 20.6171875 44.1953125 17.875 44.125 C16.96492188 44.10695312 16.05484375 44.08890625 15.1171875 44.0703125 C14.41851562 44.04710937 13.71984375 44.02390625 13 44 C10.85806265 39.14129603 8.97039783 34.26569138 7.265625 29.23828125 C7.02334167 28.52520309 6.78105835 27.81212494 6.53143311 27.07743835 C6.02560113 25.58304367 5.52149122 24.08806506 5.01904297 22.5925293 C4.24749268 20.30506639 3.46169001 18.02279741 2.67578125 15.74023438 C2.18400715 14.28154931 1.69309115 12.8225746 1.203125 11.36328125 C0.96676331 10.68405106 0.73040161 10.00482086 0.48687744 9.30500793 C-0.64326322 5.88278488 -1.41655481 3.42044838 0 0 Z " fill="#F8F9FA" transform="translate(252,152)"/>
<path d="M0 0 C3.37409636 2.35402072 4.19049513 4.04545265 5.6875 7.875 C6.02606493 10.84781626 5.97371862 13.76312884 5.875 16.75 C5.85469727 17.925625 5.85469727 17.925625 5.83398438 19.125 C5.79891789 21.04196782 5.74512072 22.95857751 5.6875 24.875 C6.6775 25.205 7.6675 25.535 8.6875 25.875 C9.8125 30.625 9.8125 30.625 8.6875 32.875 C3.76622966 33.04182272 0.18406104 33.12328052 -4.3125 30.875 C-4.9725 31.535 -5.6325 32.195 -6.3125 32.875 C-10.14596447 34.03395438 -12.13289956 33.92979336 -16 32.75 C-19.57811028 30.72465456 -20.81557061 29.66135081 -22.3125 25.875 C-22.98861948 21.90279807 -22.5111317 20.23679346 -20.5625 16.6875 C-17.19453595 12.92791223 -12.64131022 12.47053061 -7.859375 11.61328125 C-6.59867188 11.24783203 -6.59867188 11.24783203 -5.3125 10.875 C-4.9825 9.885 -4.6525 8.895 -4.3125 7.875 C-9.117359 7.53977728 -11.26905981 8.42765462 -15.3125 10.875 C-17.5 10.75 -17.5 10.75 -19.3125 9.875 C-21.3125 6.875 -21.3125 6.875 -21.19140625 4.828125 C-19.70534244 1.52576098 -17.00827578 0.92951393 -13.7890625 -0.36328125 C-8.84980306 -1.88245411 -4.9514128 -1.68161189 0 0 Z M-12.3125 19.875 C-12.355221 21.54111905 -12.35313832 23.20882885 -12.3125 24.875 C-11.25939723 26.14503323 -11.25939723 26.14503323 -8.875 26.0625 C-6.14515325 26.14339983 -6.14515325 26.14339983 -4.3125 23.875 C-4.14568891 20.79152174 -4.14568891 20.79152174 -4.3125 17.875 C-7.19645737 17.875 -9.60727815 18.93405327 -12.3125 19.875 Z " fill="#F8F9FA" transform="translate(168.3125,163.125)"/>
<path d="M0 0 C3.30615094 1.85144453 3.83537168 2.37442176 5.125 5.75 C5.39624023 7.82470703 5.39624023 7.82470703 5.43359375 10.0078125 C5.45873047 10.79800781 5.48386719 11.58820313 5.50976562 12.40234375 C5.54508675 14.05851193 5.57629908 15.71477256 5.60351562 17.37109375 C5.62994141 18.15871094 5.65636719 18.94632813 5.68359375 19.7578125 C5.69704834 20.47598145 5.71050293 21.19415039 5.72436523 21.93408203 C5.9965866 24.16489442 5.9965866 24.16489442 9.125 25.75 C9.375 28.8125 9.375 28.8125 9.125 31.75 C8.125 32.75 8.125 32.75 4.875 32.9375 C1.125 32.75 1.125 32.75 -1.4375 31.5625 C-2.241875 31.294375 -3.04625 31.02625 -3.875 30.75 C-4.803125 31.245 -5.73125 31.74 -6.6875 32.25 C-10.49055958 34.03967509 -12.1415891 33.84098891 -16.0390625 32.6015625 C-19.08905898 31.18688328 -20.32690873 29.71717493 -21.875 26.75 C-22.78729784 22.45785587 -22.45351847 19.67976183 -20.125 15.9375 C-16.0408933 13.18858203 -12.22214996 12.42495255 -7.421875 11.5234375 C-6.58140625 11.26820313 -5.7409375 11.01296875 -4.875 10.75 C-4.545 9.76 -4.215 8.77 -3.875 7.75 C-5.33422693 7.86409593 -6.79240598 7.99165544 -8.25 8.125 C-9.06210937 8.19460937 -9.87421875 8.26421875 -10.7109375 8.3359375 C-13.07834191 8.57892588 -13.07834191 8.57892588 -14.875 10.75 C-16.195 10.75 -17.515 10.75 -18.875 10.75 C-20.875 7.75 -20.875 7.75 -21 5.3125 C-19.46682617 1.82027073 -17.5441376 0.9785408 -14.125 -0.5234375 C-9.24481753 -2.09932976 -4.81330631 -1.80374419 0 0 Z M-11.875 19.75 C-12.94254834 21.68400917 -12.94254834 21.68400917 -12.875 23.75 C-12.215 24.41 -11.555 25.07 -10.875 25.75 C-7.77573181 25.42801034 -7.77573181 25.42801034 -4.875 24.75 C-4.545 22.44 -4.215 20.13 -3.875 17.75 C-7.15676588 17.75 -8.98388212 18.22835901 -11.875 19.75 Z " fill="#F8FAFA" transform="translate(72.875,163.25)"/>
<path d="M0 0 C4.22600742 1.82486684 5.96276644 3.92985823 8 8 C8.35644531 10.84667969 8.35644531 10.84667969 8.328125 13.921875 C8.32296875 15.02917969 8.3178125 16.13648438 8.3125 17.27734375 C8.291875 18.42332031 8.27125 19.56929687 8.25 20.75 C8.24484375 21.91144531 8.2396875 23.07289063 8.234375 24.26953125 C8.15412854 32.84587146 8.15412854 32.84587146 7 34 C4.32941149 34.14115161 1.67567762 34.04247107 -1 34 C-1.7529365 26.00605711 -2.4017071 18.00694114 -3 10 C-5.31 10 -7.62 10 -10 10 C-11.20194812 12.40389624 -11.18703898 14.07014503 -11.28125 16.75390625 C-11.31863281 17.69041016 -11.35601562 18.62691406 -11.39453125 19.59179688 C-11.46498226 21.57616696 -11.53529422 23.56054199 -11.60546875 25.54492188 C-11.64285156 26.48013672 -11.68023437 27.41535156 -11.71875 28.37890625 C-11.76418945 29.67163452 -11.76418945 29.67163452 -11.81054688 30.99047852 C-12 33 -12 33 -13 34 C-14.8125 34.1328125 -14.8125 34.1328125 -17 34.125 C-17.721875 34.12757813 -18.44375 34.13015625 -19.1875 34.1328125 C-21 34 -21 34 -22 33 C-22.1002093 30.72052208 -22.13081303 28.43792865 -22.1328125 26.15625 C-22.13376923 25.47195923 -22.13472595 24.78766846 -22.13571167 24.0826416 C-22.1363933 22.63338123 -22.13454023 21.18411782 -22.13037109 19.73486328 C-22.12502252 17.50937072 -22.1303166 15.28407999 -22.13671875 13.05859375 C-22.13605797 11.65364539 -22.1347768 10.24869715 -22.1328125 8.84375 C-22.13168457 7.55662109 -22.13055664 6.26949219 -22.12939453 4.94335938 C-22 2 -22 2 -21 1 C-17.92441137 0.92752663 -14.86084597 1.00384561 -11.78515625 1.0625 C-7.64151169 0.96951499 -4.39169705 -0.29774217 0 0 Z " fill="#F8FAFA" transform="translate(203,162)"/>
<path d="M0 0 C3.89422355 3.89422355 6 7.84423261 6 13.4296875 C5.48357422 20.68116621 3.55162735 25.14232607 -2 30 C-7.41344551 31.80448184 -13.65832856 31.99645593 -18.9375 29.75 C-19.9584375 28.88375 -19.9584375 28.88375 -21 28 C-22.0828125 27.13375 -22.0828125 27.13375 -23.1875 26.25 C-26.57557853 22.04410941 -27.23771631 17.69955184 -26.8125 12.4375 C-26.03106304 7.15606403 -24.4906783 3.41423326 -20.5625 -0.3125 C-13.94728083 -4.66886384 -6.79073991 -3.71568787 0 0 Z M-15.9375 7.4375 C-17.54136452 11.30564384 -17.537354 14.87524039 -17 19 C-16.15479867 21.65844217 -16.15479867 21.65844217 -14 23 C-10.5 23.75 -10.5 23.75 -7 23 C-4.37678901 20.20754959 -4.03193265 18.29803809 -3.625 14.5 C-4.03193265 10.70196191 -4.37678901 8.79245041 -7 6 C-10.67906098 5.40872234 -12.87720568 5.16695906 -15.9375 7.4375 Z " fill="#F8F9FA" transform="translate(243,165)"/>
<path d="M0 0 C2 2 2 2 2.25 5 C2 8 2 8 0 10 C-2.32275177 10.40047444 -4.65739357 10.7397104 -7 11 C-8.88326841 15.75617591 -9.18837331 19.65464838 -9.0625 24.75 C-8.90337711 31.80675422 -8.90337711 31.80675422 -10 34 C-16.15234375 34.09765625 -16.15234375 34.09765625 -18 34 C-19 33 -19 33 -19.11352539 29.94897461 C-19.11336634 28.60008729 -19.10767612 27.25119386 -19.09765625 25.90234375 C-19.0962413 25.19348526 -19.09482635 24.48462677 -19.09336853 23.75428772 C-19.08775443 21.48198288 -19.07519963 19.20977525 -19.0625 16.9375 C-19.05748681 15.40039204 -19.05292359 13.86328255 -19.04882812 12.32617188 C-19.03778042 8.55074358 -19.02050641 4.77538829 -19 1 C-17.73542969 1.01740234 -17.73542969 1.01740234 -16.4453125 1.03515625 C-15.34960938 1.04417969 -14.25390625 1.05320313 -13.125 1.0625 C-11.48917969 1.07990234 -11.48917969 1.07990234 -9.8203125 1.09765625 C-6.26356982 0.97450034 -3.69470638 -0.27710298 0 0 Z " fill="#F8F9FA" transform="translate(105,162)"/>
</svg>
